<svg width="416" height="80" viewBox="0 0 416 80" fill="none" xmlns="http://www.w3.org/2000/svg">
<path d="M30.1 4.6C36.0333 4.6 41 5.16666 45 6.3C49.0667 7.43333 52.1 9.3 54.1 11.9C56.1667 14.5 57.2 17.9667 57.2 22.3C57.2 25.1 56.6667 27.6 55.6 29.8C54.6 31.9333 53.0667 33.7333 51 35.2C49 36.6 46.5333 37.5667 43.6 38.1V38.6C46.6 39.0667 49.3 39.9333 51.7 41.2C54.1667 42.4667 56.1 44.2667 57.5 46.6C58.9 48.9333 59.6 51.9667 59.6 55.7C59.6 60.0333 58.6 63.7333 56.6 66.8C54.6 69.8 51.7333 72.1 48 73.7C44.3333 75.2333 39.9333 76 34.8 76H9.7V4.6H30.1ZM31.9 35C38.0333 35 42.2333 34.0333 44.5 32.1C46.7667 30.1 47.9 27.1667 47.9 23.3C47.9 19.3667 46.5 16.5667 43.7 14.9C40.9667 13.1667 36.5667 12.3 30.5 12.3H18.7V35H31.9ZM18.7 42.5V68.4H33.1C39.4333 68.4 43.8333 67.1667 46.3 64.7C48.7667 62.2333 50 59 50 55C50 52.4667 49.4333 50.2667 48.3 48.4C47.2333 46.5333 45.4 45.1 42.8 44.1C40.2667 43.0333 36.8 42.5 32.4 42.5H18.7ZM82.3391 22.4V76H73.5391V22.4H82.3391ZM78.0391 2.3C79.3724 2.3 80.5391 2.76666 81.5391 3.7C82.6057 4.56666 83.1391 5.96666 83.1391 7.89999C83.1391 9.76666 82.6057 11.1667 81.5391 12.1C80.5391 13.0333 79.3724 13.5 78.0391 13.5C76.5724 13.5 75.3391 13.0333 74.3391 12.1C73.3391 11.1667 72.8391 9.76666 72.8391 7.89999C72.8391 5.96666 73.3391 4.56666 74.3391 3.7C75.3391 2.76666 76.5724 2.3 78.0391 2.3ZM133.92 76H94.7203V70.2L123.52 29.2H96.4203V22.4H133.22V29L104.82 69.2H133.92V76ZM178.093 11.5C174.293 11.5 170.86 12.1667 167.793 13.5C164.726 14.7667 162.126 16.6667 159.993 19.2C157.86 21.6667 156.226 24.7 155.093 28.3C153.96 31.8333 153.393 35.8333 153.393 40.3C153.393 46.1667 154.293 51.2667 156.093 55.6C157.96 59.9333 160.693 63.2667 164.293 65.6C167.96 67.9333 172.526 69.1 177.993 69.1C181.126 69.1 184.093 68.8333 186.893 68.3C189.693 67.7667 192.426 67.1 195.093 66.3V74.1C192.426 75.1 189.66 75.8333 186.793 76.3C183.993 76.7667 180.626 77 176.693 77C169.426 77 163.36 75.5 158.493 72.5C153.626 69.5 149.96 65.2333 147.493 59.7C145.093 54.1667 143.893 47.6667 143.893 40.2C143.893 34.8 144.626 29.8667 146.093 25.4C147.626 20.9333 149.826 17.0667 152.693 13.8C155.626 10.5333 159.226 8.03333 163.493 6.3C167.76 4.5 172.66 3.6 178.193 3.6C181.86 3.6 185.393 3.96666 188.793 4.69999C192.193 5.43333 195.226 6.46666 197.893 7.8L194.293 15.4C192.093 14.4 189.626 13.5 186.893 12.7C184.226 11.9 181.293 11.5 178.093 11.5ZM234.477 21.4C235.477 21.4 236.543 21.4667 237.677 21.6C238.877 21.6667 239.91 21.8 240.777 22L239.677 30.1C238.81 29.9 237.843 29.7333 236.777 29.6C235.777 29.4667 234.81 29.4 233.877 29.4C231.81 29.4 229.843 29.8333 227.977 30.7C226.11 31.5667 224.443 32.8 222.977 34.4C221.51 35.9333 220.343 37.8 219.477 40C218.677 42.2 218.277 44.6667 218.277 47.4V76H209.477V22.4H216.677L217.677 32.2H218.077C219.21 30.2 220.577 28.4 222.177 26.8C223.777 25.1333 225.61 23.8333 227.677 22.9C229.743 21.9 232.01 21.4 234.477 21.4ZM295.585 22.4V76H288.385L287.085 68.9H286.685C285.552 70.7667 284.085 72.3 282.285 73.5C280.485 74.7 278.518 75.5667 276.385 76.1C274.252 76.7 272.018 77 269.685 77C265.418 77 261.818 76.3333 258.885 75C256.018 73.6 253.852 71.4667 252.385 68.6C250.918 65.7333 250.185 62.0333 250.185 57.5V22.4H259.085V56.9C259.085 61.1667 260.052 64.3667 261.985 66.5C263.918 68.6333 266.918 69.7 270.985 69.7C274.985 69.7 278.118 68.9667 280.385 67.5C282.718 65.9667 284.352 63.7667 285.285 60.9C286.285 57.9667 286.785 54.4333 286.785 50.3V22.4H295.585ZM347.502 61.2C347.502 64.6667 346.635 67.5667 344.902 69.9C343.168 72.2333 340.702 74 337.502 75.2C334.302 76.4 330.502 77 326.102 77C322.368 77 319.135 76.7 316.402 76.1C313.735 75.5 311.368 74.6667 309.302 73.6V65.6C311.435 66.6667 314.002 67.6667 317.002 68.6C320.068 69.4667 323.168 69.9 326.302 69.9C330.768 69.9 334.002 69.2 336.002 67.8C338.002 66.3333 339.002 64.4 339.002 62C339.002 60.6667 338.635 59.4667 337.902 58.4C337.168 57.3333 335.835 56.2667 333.902 55.2C332.035 54.1333 329.335 52.9333 325.802 51.6C322.335 50.2667 319.368 48.9333 316.902 47.6C314.435 46.2667 312.535 44.6667 311.202 42.8C309.868 40.9333 309.202 38.5333 309.202 35.6C309.202 31.0667 311.035 27.5667 314.702 25.1C318.435 22.6333 323.302 21.4 329.302 21.4C332.568 21.4 335.602 21.7333 338.402 22.4C341.268 23 343.935 23.8667 346.402 25L343.402 32C341.935 31.3333 340.368 30.7667 338.702 30.3C337.102 29.7667 335.468 29.3667 333.802 29.1C332.135 28.7667 330.435 28.6 328.702 28.6C325.102 28.6 322.335 29.2 320.402 30.4C318.535 31.5333 317.602 33.1 317.602 35.1C317.602 36.5667 318.035 37.8333 318.902 38.9C319.768 39.9 321.202 40.9 323.202 41.9C325.268 42.8333 328.002 43.9667 331.402 45.3C334.802 46.5667 337.702 47.8667 340.102 49.2C342.502 50.5333 344.335 52.1667 345.602 54.1C346.868 55.9667 347.502 58.3333 347.502 61.2ZM369.253 22.3C369.253 23.5667 369.186 24.8667 369.053 26.2C368.986 27.5333 368.886 28.7333 368.753 29.8H369.353C370.486 27.9333 371.92 26.4 373.653 25.2C375.386 24 377.32 23.1 379.453 22.5C381.586 21.8333 383.786 21.5 386.053 21.5C390.386 21.5 393.986 22.2 396.853 23.6C399.786 24.9333 401.986 27.0333 403.453 29.9C404.92 32.7667 405.653 36.5 405.653 41.1V76H396.953V41.7C396.953 37.3667 395.986 34.1333 394.053 32C392.12 29.8667 389.086 28.8 384.953 28.8C380.953 28.8 377.82 29.5667 375.553 31.1C373.286 32.5667 371.653 34.7667 370.653 37.7C369.72 40.5667 369.253 44.1 369.253 48.3V76H360.453V-5.00679e-06H369.253V22.3Z" fill="white"/>
</svg>
