<svg width="282" height="80" viewBox="0 0 282 80" fill="none" xmlns="http://www.w3.org/2000/svg">
<path d="M24.4141 67.2109H35.6445C38.8997 67.2109 40.5273 65.2578 40.5273 61.3516V36.9375C40.5273 33.0312 38.8997 31.0781 35.6445 31.0781H24.4141C21.1589 31.0781 19.5312 33.0312 19.5312 36.9375V61.3516C19.5312 65.2578 21.1589 67.2109 24.4141 67.2109ZM24.4141 76C14.6484 76 9.76562 71.1172 9.76562 61.3516V4.71094L19.043 0.316406H19.5312V23.8027C20.8333 22.7936 22.4609 22.2891 24.4141 22.2891H35.6445C45.4102 22.2891 50.293 27.1719 50.293 36.9375V61.3516C50.293 71.1172 45.4102 76 35.6445 76H24.4141ZM67.3828 77.9531V4.71094L76.6602 0.316406H77.1484V73.5586L67.8711 77.9531H67.3828ZM106.445 67.2109H116.699C119.954 67.2109 121.582 65.2578 121.582 61.3516V54.6621C121.582 50.7559 119.954 48.8027 116.699 48.8027H106.445C103.19 48.8027 101.562 50.7559 101.562 54.6621V61.3516C101.562 65.2578 103.19 67.2109 106.445 67.2109ZM106.445 76C96.6797 76 91.7969 71.1172 91.7969 61.3516V54.6621C91.7969 44.8965 96.6797 40.0137 106.445 40.0137H116.699C118.392 40.0137 120.02 40.502 121.582 41.4785V36.9375C121.582 33.0312 119.954 31.0781 116.699 31.0781H99.2188V30.5898L103.125 22.2891H116.699C126.465 22.2891 131.348 27.1719 131.348 36.9375V73.5586L122.07 77.9531H121.582V74.5352C120.345 75.5117 118.717 76 116.699 76H106.445ZM150.098 77.9531H149.609L141.113 73.9492L156.25 49.1445L141.113 24.3887L149.658 20.3359H150.146L162.012 41.1855L173.828 20.3359H174.316L182.861 24.3887L167.725 49.1445L182.861 73.9492L174.365 77.9531H173.877L162.012 57.0547L150.098 77.9531ZM207.324 76C197.559 76 192.676 71.1172 192.676 61.3516V36.9375C192.676 27.1719 197.559 22.2891 207.324 22.2891H218.555C228.32 22.2891 233.203 27.1719 233.203 36.9375V39.5254L202.588 63.207C203.044 65.8763 204.622 67.2109 207.324 67.2109H218.555C221.81 67.2109 223.438 65.2578 223.438 61.3516V58.7637L232.715 54.3691H233.203V61.3516C233.203 71.1172 228.32 76 218.555 76H207.324ZM202.441 53.002L223.389 36.1074C223.193 32.7546 221.582 31.0781 218.555 31.0781H207.324C204.069 31.0781 202.441 33.0312 202.441 36.9375V53.002ZM250.293 77.9531V4.71094L259.57 0.316406H260.059V73.5586L250.781 77.9531H250.293Z" fill="white"/>
</svg>
