<svg width="296" height="80" viewBox="0 0 296 80" fill="none" xmlns="http://www.w3.org/2000/svg">
<path d="M10.4 71C10 71 9.66667 70.8667 9.4 70.6C9.13333 70.3333 9 70 9 69.6V5.1C9 4.1 9.33333 3.26666 10 2.6C10.7333 1.86666 11.6 1.49999 12.6 1.49999H45.5C45.9 1.49999 46.2333 1.63333 46.5 1.9C46.7667 2.16666 46.9 2.5 46.9 2.89999V7.8C46.9 8.2 46.7667 8.53333 46.5 8.8C46.2333 9.06666 45.9 9.2 45.5 9.2H17.2V32.6H38.8C39.2 32.6 39.5333 32.7333 39.8 33C40.0667 33.2667 40.2 33.6 40.2 34V38.7C40.2 39.1 40.0667 39.4333 39.8 39.7C39.5333 39.9667 39.2 40.1 38.8 40.1H17.2V69.6C17.2 70 17.0667 70.3333 16.8 70.6C16.5333 70.8667 16.2 71 15.8 71H10.4ZM59.2672 71C58.8672 71 58.5339 70.8667 58.2672 70.6C58.0005 70.3333 57.8672 70 57.8672 69.6V64.9C57.8672 64.5 58.0005 64.1667 58.2672 63.9C58.5339 63.6333 58.8672 63.5 59.2672 63.5H69.3672V9H59.2672C58.8672 9 58.5339 8.86667 58.2672 8.6C58.0005 8.33333 57.8672 8 57.8672 7.6V2.89999C57.8672 2.5 58.0005 2.16666 58.2672 1.9C58.5339 1.63333 58.8672 1.49999 59.2672 1.49999H87.6672C88.0672 1.49999 88.4005 1.63333 88.6672 1.9C88.9339 2.16666 89.0672 2.5 89.0672 2.89999V7.6C89.0672 8 88.9339 8.33333 88.6672 8.6C88.4005 8.86667 88.0672 9 87.6672 9H77.5672V63.5H87.6672C88.0672 63.5 88.4005 63.6333 88.6672 63.9C88.9339 64.1667 89.0672 64.5 89.0672 64.9V69.6C89.0672 70 88.9339 70.3333 88.6672 70.6C88.4005 70.8667 88.0672 71 87.6672 71H59.2672ZM106.005 71C105.605 71 105.272 70.8667 105.005 70.6C104.739 70.3333 104.605 70 104.605 69.6V3.6C104.605 3 104.805 2.5 105.205 2.1C105.605 1.7 106.105 1.49999 106.705 1.49999H112.605C113.805 1.49999 114.672 1.96666 115.205 2.89999L142.005 49.7L146.805 58.1V2.89999C146.805 2.5 146.939 2.16666 147.205 1.9C147.472 1.63333 147.805 1.49999 148.205 1.49999H153.205C153.605 1.49999 153.939 1.63333 154.205 1.9C154.472 2.16666 154.605 2.5 154.605 2.89999V68.9C154.605 69.5 154.405 70 154.005 70.4C153.605 70.8 153.105 71 152.505 71H146.505C145.305 71 144.439 70.5333 143.905 69.6L116.605 21.9L112.405 14.5V69.6C112.405 70.5333 111.939 71 111.005 71H106.005ZM174.951 71C174.551 71 174.217 70.8667 173.951 70.6C173.684 70.3333 173.551 70 173.551 69.6V3.6C173.551 3 173.751 2.5 174.151 2.1C174.551 1.7 175.051 1.49999 175.651 1.49999H181.551C182.751 1.49999 183.617 1.96666 184.151 2.89999L210.951 49.7L215.751 58.1V2.89999C215.751 2.5 215.884 2.16666 216.151 1.9C216.417 1.63333 216.751 1.49999 217.151 1.49999H222.151C222.551 1.49999 222.884 1.63333 223.151 1.9C223.417 2.16666 223.551 2.5 223.551 2.89999V68.9C223.551 69.5 223.351 70 222.951 70.4C222.551 70.8 222.051 71 221.451 71H215.451C214.251 71 213.384 70.5333 212.851 69.6L185.551 21.9L181.351 14.5V69.6C181.351 70.5333 180.884 71 179.951 71H174.951ZM258.22 71C257.82 71 257.486 70.8667 257.22 70.6C256.953 70.3333 256.82 70 256.82 69.6V37.5L236.32 4.2C236.12 3.8 236.02 3.46666 236.02 3.2C236.02 2.66666 236.186 2.26666 236.52 1.99999C236.853 1.66666 237.286 1.49999 237.82 1.49999H243.22C243.82 1.49999 244.32 1.79999 244.72 2.4L260.92 29.1L277.02 2.4C277.42 1.79999 277.92 1.49999 278.52 1.49999H283.92C284.453 1.49999 284.886 1.66666 285.22 1.99999C285.553 2.26666 285.72 2.66666 285.72 3.2C285.72 3.46666 285.62 3.8 285.42 4.2L265.02 37.2V69.6C265.02 70 264.886 70.3333 264.62 70.6C264.353 70.8667 264.02 71 263.62 71H258.22Z" fill="white"/>
</svg>
