<svg width="267" height="80" viewBox="0 0 267 80" fill="none" xmlns="http://www.w3.org/2000/svg">
<path d="M187.565 15.7184H173.371C173.189 15.7319 173.018 15.8104 172.889 15.9396C172.759 16.0687 172.681 16.24 172.667 16.4222V24.6333C172.681 24.8154 172.759 24.9867 172.889 25.1158C173.018 25.245 173.189 25.3235 173.371 25.3371H187.565C187.747 25.3235 187.918 25.245 188.047 25.1158C188.176 24.9867 188.255 24.8154 188.268 24.6333V16.4222C188.268 15.953 188.034 15.7184 187.565 15.7184ZM187.33 27.9177H160.116C159.764 27.9177 159.295 28.2696 159.178 28.6215L155.659 41.9938L155.424 42.6976L151.319 28.3869C151.201 28.035 150.849 27.6831 150.38 27.6831H139.823C139.471 27.6831 139.002 28.035 138.885 28.3869L134.896 41.7592L134.662 42.463L134.427 41.7592L131.143 28.6215C131.025 28.2696 130.674 27.9177 130.204 27.9177H108.973V16.4222C108.973 16.0703 108.504 15.6011 108.034 15.8357L94.5448 19.9412C94.1929 20.0585 93.841 20.2931 93.841 20.645V27.9177H90.3219C90.1398 27.9312 89.9685 28.0097 89.8393 28.1389C89.7102 28.2681 89.6317 28.4393 89.6181 28.6215V38.8267C89.6317 39.0089 89.7102 39.1801 89.8393 39.3093C89.9685 39.4385 90.1398 39.517 90.3219 39.5305H93.841V51.9644C93.841 60.762 98.6503 64.8676 107.565 64.8676C111.202 64.8676 114.838 64.0465 117.184 62.7561V52.199C117.184 51.6125 116.715 51.4952 116.48 51.6125C115.072 52.199 113.899 52.4336 112.609 52.4336C110.263 52.4336 108.973 51.4952 108.973 48.68V39.5305H116.597C116.78 39.517 116.951 39.4385 117.08 39.3093C117.209 39.1801 117.288 39.0089 117.301 38.8267V30.2637L127.389 63.8119C127.506 64.1638 127.858 64.5157 128.328 64.5157H139.471C139.823 64.5157 140.292 64.1638 140.41 63.8119L145.219 48.9146L149.911 63.6946C150.028 64.0465 150.497 64.3984 150.849 64.3984H161.993C162.345 64.3984 162.814 64.0465 162.931 63.6946L173.137 30.0291V63.6946C173.15 63.8767 173.229 64.048 173.358 64.1771C173.487 64.3063 173.658 64.3848 173.84 64.3984H187.447C187.629 64.3848 187.801 64.3063 187.93 64.1771C188.059 64.048 188.138 63.8767 188.151 63.6946V28.6215C188.034 28.1523 187.682 27.9177 187.33 27.9177ZM205.277 15.7184H191.67C191.488 15.7319 191.317 15.8104 191.188 15.9396C191.058 16.0687 190.98 16.24 190.966 16.4222V63.6946C190.98 63.8767 191.058 64.048 191.188 64.1771C191.317 64.3063 191.488 64.3848 191.67 64.3984H205.277C205.459 64.3848 205.631 64.3063 205.76 64.1771C205.889 64.048 205.967 63.8767 205.981 63.6946V16.4222C205.981 15.953 205.629 15.7184 205.277 15.7184ZM223.459 15.7184H209.265C209.083 15.7319 208.912 15.8104 208.783 15.9396C208.654 16.0687 208.575 16.24 208.562 16.4222V24.6333C208.575 24.8154 208.654 24.9867 208.783 25.1158C208.912 25.245 209.083 25.3235 209.265 25.3371H223.459C223.641 25.3235 223.812 25.245 223.941 25.1158C224.071 24.9867 224.149 24.8154 224.163 24.6333V16.4222C224.163 15.953 223.928 15.7184 223.459 15.7184ZM223.224 27.9177H209.617C209.435 27.9312 209.264 28.0097 209.135 28.1389C209.005 28.2681 208.927 28.4393 208.913 28.6215V63.6946C208.927 63.8767 209.005 64.048 209.135 64.1771C209.264 64.3063 209.435 64.3848 209.617 64.3984H223.224C223.406 64.3848 223.578 64.3063 223.707 64.1771C223.836 64.048 223.914 63.8767 223.928 63.6946V28.6215C223.928 28.1523 223.576 27.9177 223.224 27.9177ZM245.746 26.9793C233.781 26.9793 225.336 35.7769 225.336 45.9821V46.0994C225.336 56.3046 233.781 64.9849 245.629 64.9849C257.593 64.9849 266.039 56.1873 266.039 45.9821V45.8648C266.156 35.6596 257.711 26.9793 245.746 26.9793ZM251.611 46.0994C251.611 49.5011 249.148 52.4336 245.746 52.4336C242.462 52.4336 239.764 49.6184 239.764 45.9821V45.8648C239.764 42.463 242.227 39.5305 245.629 39.5305C248.913 39.5305 251.611 42.3457 251.611 45.9821V46.0994ZM39.9997 0C17.9471 0 0 17.9471 0 39.9997C0 62.0523 17.9471 79.9994 39.9997 79.9994C62.1696 80.1167 80.1167 62.1696 80.1167 39.9997C80.1167 17.8298 62.1696 0 39.9997 0ZM39.9997 69.5596C23.8121 69.5596 10.5571 56.3046 10.5571 39.9997C10.5571 23.8121 23.8121 10.5571 39.9997 10.5571C56.3046 10.5571 69.5596 23.8121 69.5596 39.9997C69.5596 56.3046 56.3046 69.5596 39.9997 69.5596Z" fill="white"/>
</svg>
